<?xml version="1.0" standalone="no"?>
<!DOCTYPE svg PUBLIC "-//W3C//DTD SVG 20010904//EN"
 "http://www.w3.org/TR/2001/REC-SVG-20010904/DTD/svg10.dtd">
<svg version="1.0" xmlns="http://www.w3.org/2000/svg"
 width="260.000000pt" height="260.000000pt" viewBox="0 0 260.000000 260.000000"
 preserveAspectRatio="xMidYMid meet">
<metadata>
Created by potrace 1.14, written by Peter Selinger 2001-2017
</metadata>
<g transform="translate(0.000000,260.000000) scale(0.100000,-0.100000)"
fill="#000000" stroke="none">
<path d="M0 1300 l0 -1300 1300 0 1300 0 0 1300 0 1300 -1300 0 -1300 0 0
-1300z m1515 1161 c222 -49 398 -141 562 -295 130 -120 246 -309 292 -471 10
-38 31 -96 46 -127 33 -73 42 -173 21 -243 -39 -133 -112 -328 -147 -395 -249
-478 -851 -713 -1391 -544 -182 57 -335 150 -474 288 -175 174 -261 346 -305
612 l-21 132 21 120 c34 188 79 308 165 439 164 249 439 430 741 487 125 24
132 25 270 21 80 -3 164 -12 220 -24z"/>
<path d="M577 1813 c-3 -5 -8 -77 -12 -160 -7 -138 -6 -153 9 -159 10 -4 22
-2 29 5 8 8 88 11 260 11 l249 0 -6 -52 c-3 -29 -8 -96 -12 -148 -3 -52 -8
-103 -11 -113 -5 -17 -21 -18 -291 -15 -281 3 -287 3 -287 -17 0 -19 10 -20
305 -30 168 -6 308 -8 312 -5 4 3 14 91 23 197 12 141 13 198 5 213 -10 19
-19 20 -277 20 l-266 0 6 68 c4 37 7 84 7 104 l0 38 268 2 c259 3 267 4 267
23 0 19 -8 20 -287 23 -158 1 -289 -1 -291 -5z"/>
<path d="M1394 1767 c-12 -32 6 -37 149 -38 78 -1 204 -4 280 -8 l137 -6 -345
-269 c-190 -148 -345 -275 -345 -281 0 -36 20 -38 403 -29 362 9 372 10 372
29 0 20 -6 20 -327 17 -277 -3 -328 -1 -328 11 0 8 149 130 330 272 311 242
352 280 323 298 -5 3 -151 8 -325 12 -284 7 -318 6 -324 -8z"/>
<path d="M1174 1255 c-4 -9 -2 -21 4 -27 16 -16 47 -5 47 17 0 26 -42 34 -51
10z"/>
</g>
</svg>
